<svg xmlns="http://www.w3.org/2000/svg" xmlns:xlink="http://www.w3.org/1999/xlink" version="1.1" x="0px" y="0px" viewBox="0 0 32 40" style="enable-background:new 0 0 32 32;" xml:space="preserve"><g><path d="M26,25H6c-0.514,0-0.944-0.39-0.995-0.901c-0.251-2.534-0.751-4.039-1.507-6.317c-0.246-0.74-0.515-1.55-0.805-2.488   c-0.164-0.527,0.131-1.087,0.659-1.251c0.528-0.166,1.088,0.131,1.251,0.659c0.286,0.923,0.551,1.721,0.793,2.449   c0.682,2.056,1.197,3.605,1.495,5.85h18.219c0.3-2.258,0.818-3.818,1.507-5.889c0.242-0.73,0.508-1.529,0.795-2.454   c0.163-0.527,0.717-0.825,1.252-0.659c0.527,0.164,0.822,0.724,0.658,1.251c-0.291,0.939-0.562,1.751-0.808,2.492   c-0.762,2.294-1.266,3.81-1.519,6.356C26.944,24.61,26.514,25,26,25z"/><path d="M7.999,17.132c-0.388,0-0.774-0.113-1.109-0.337l-2.732-1.822c-0.459-0.306-0.583-0.927-0.277-1.387   c0.306-0.46,0.927-0.584,1.387-0.277l2.732,1.822L8,11.071c0-0.552,0.448-1,1-1s1,0.448,1,1v4.059c0,0.739-0.405,1.415-1.057,1.764   C8.647,17.053,8.323,17.132,7.999,17.132z"/><path d="M13.498,15.595c-0.637,0-1.232-0.302-1.616-0.839l-2.501-3.502C9.06,10.805,9.164,10.18,9.614,9.859   c0.448-0.321,1.074-0.217,1.395,0.233l2.501,3.501l1.07-4.81c0.12-0.54,0.656-0.878,1.193-0.759   c0.539,0.12,0.879,0.654,0.759,1.193l-1.069,4.809c-0.174,0.782-0.77,1.367-1.554,1.527C13.771,15.581,13.634,15.595,13.498,15.595   z"/><path d="M18.502,15.595c-0.136,0-0.273-0.014-0.411-0.042c-0.784-0.16-1.38-0.745-1.553-1.527l-1.07-4.812   c-0.12-0.539,0.22-1.073,0.759-1.193c0.539-0.119,1.073,0.22,1.193,0.759l1.07,4.812l2.508-3.51   c0.321-0.448,0.946-0.553,1.395-0.232c0.449,0.321,0.554,0.945,0.232,1.395l-2.508,3.51C19.734,15.292,19.139,15.595,18.502,15.595   z"/><path d="M24.001,17.132c-0.323,0-0.648-0.079-0.944-0.237C22.405,16.545,22,15.87,22,15.13V11.06c0-0.552,0.447-1,1-1s1,0.448,1,1   v4.071l2.737-1.824c0.46-0.307,1.081-0.183,1.387,0.277c0.307,0.459,0.183,1.081-0.277,1.387l-2.736,1.824   C24.775,17.019,24.389,17.132,24.001,17.132z"/><path d="M3,16c-1.654,0-3-1.346-3-3s1.346-3,3-3s3,1.346,3,3S4.654,16,3,16z M3,12c-0.551,0-1,0.449-1,1s0.449,1,1,1s1-0.449,1-1   S3.551,12,3,12z"/><path d="M29,16c-1.654,0-3-1.346-3-3s1.346-3,3-3s3,1.346,3,3S30.654,16,29,16z M29,12c-0.552,0-1,0.449-1,1s0.448,1,1,1   s1-0.449,1-1S29.552,12,29,12z"/><path d="M16,10c-1.654,0-3-1.346-3-3s1.346-3,3-3s3,1.346,3,3S17.654,10,16,10z M16,6c-0.551,0-1,0.449-1,1s0.449,1,1,1   s1-0.449,1-1S16.551,6,16,6z"/><path d="M9,12c-1.654,0-3-1.346-3-3s1.346-3,3-3s3,1.346,3,3S10.654,12,9,12z M9,8C8.449,8,8,8.449,8,9s0.449,1,1,1s1-0.449,1-1   S9.551,8,9,8z"/><path d="M23,12c-1.654,0-3-1.346-3-3s1.346-3,3-3s3,1.346,3,3S24.654,12,23,12z M23,8c-0.552,0-1,0.449-1,1s0.448,1,1,1   s1-0.449,1-1S23.552,8,23,8z"/><path d="M25.5,28h-19C5.122,28,4,26.879,4,25.5S5.122,23,6.5,23h19c1.379,0,2.5,1.121,2.5,2.5S26.879,28,25.5,28z M6.5,25   C6.229,25,6,25.229,6,25.5S6.229,26,6.5,26h19c0.271,0,0.5-0.229,0.5-0.5S25.771,25,25.5,25H6.5z"/><circle cx="12" cy="19" r="1"/><circle cx="16" cy="19" r="1"/><circle cx="20" cy="19" r="1"/></g><text x="0" y="47" fill="#000000" font-size="5px" font-weight="bold" font-family="'Helvetica Neue', Helvetica, Arial-Unicode, Arial, Sans-serif">Created by ✦ Shmidt Sergey ✦</text><text x="0" y="52" fill="#000000" font-size="5px" font-weight="bold" font-family="'Helvetica Neue', Helvetica, Arial-Unicode, Arial, Sans-serif">from the Noun Project</text></svg>